<svg xmlns="http://www.w3.org/2000/svg" viewBox="0 0 157.43 54">
  <path id="Path_10741" data-name="Path 10741" d="M31.57,34a2.42,2.42,0,0,0-3.17,1c-.24.39-.48.77-.73,1.14Q27,37.1,26.29,38a5.59,5.59,0,0,1-7.87.75,6.64,6.64,0,0,1-.75-.75c-.48-.6-.94-1.23-1.38-1.88a31.76,31.76,0,0,1-4.57-11.38A44.85,44.85,0,0,1,10.86,18a6.14,6.14,0,0,1,4.82-6.32h.08A46.85,46.85,0,0,1,22,10.8a46.83,46.83,0,0,1,6.24.87h.07A6.15,6.15,0,0,1,33.11,18,7.06,7.06,0,0,1,33,19.36,2.42,2.42,0,0,0,35.2,22h0l5.92.47a2.43,2.43,0,0,0,2.62-2.2v0a59.91,59.91,0,0,0-.07-10.46A6.17,6.17,0,0,0,41.43,5.6C35.87,1.21,25.74.23,22.8,0a11.09,11.09,0,0,0-1.63,0C18.24.23,8.1,1.21,2.54,5.59A6.11,6.11,0,0,0,.27,9.78c-.73,7.38-1.4,31.57,18.94,43.47a5.51,5.51,0,0,0,5.55,0A36.09,36.09,0,0,0,37.94,40.06a2.44,2.44,0,0,0-.88-3.33l-.15-.08L31.57,34" fill="#ffc247"/>
  <g>
    <path id="Path_10742" data-name="Path 10742" d="M96.15,44.58c-6.11,0-10.49-4.3-10.49-10.72a10.32,10.32,0,0,1,10-10.64h.69c6.5,0,10.13,4.68,10.13,11.15v1.2h-15a4.81,4.81,0,0,0,4.8,4.3,4.34,4.34,0,0,0,3.91-1.82h6c-1.24,3.79-4.8,6.54-10,6.54m4.56-12.73a4.47,4.47,0,0,0-4.52-4.22,4.73,4.73,0,0,0-4.8,4.22Z" fill="#fff"/>
    <path id="Path_10743" data-name="Path 10743" d="M114.12,27.05c1.16-2.47,3.48-3.44,6.11-3.52v5.61a10.07,10.07,0,0,0-3.14.35c-1.43.46-2.78,1.43-2.78,5.69v8.71h-6v-20h5.8Z" fill="#fff"/>
    <path id="Path_10744" data-name="Path 10744" d="M133.65,39.14h1.2l2.06,4.72H132c-5.68.12-6.84-3.29-6.84-7.93V29.15h-3.37V24h3.37V19.5L131,16.91V24h4.1v5.19H131V35c0,2.71.11,4.21,2.63,4.21" fill="#fff"/>
    <path id="Path_10745" data-name="Path 10745" d="M135.92,33.86c0-6.81,5.1-10.6,10.79-10.6s10.72,3.79,10.72,10.6-5.07,10.68-10.72,10.68-10.79-3.83-10.79-10.68m10.79,6c3.06,0,5-2.71,5-6s-1.93-6-5-6-5,2.71-5,6,1.94,6,5,6" fill="#fff"/>
    <path id="Path_10746" data-name="Path 10746" d="M71.14,44.58c-7.93,0-14-5.46-14-14.28,0-8.66,6.14-14.3,14.11-14.3,6.92,0,11.45,3.4,13.19,9.52H78.33c-1.39-3.1-4-4.26-7.08-4.26-4.37,0-7.89,3.64-7.89,9.09s3.56,9,7.89,9c3.83,0,5.92-1.47,7-4.21h6.07c-1.54,6.11-6.46,9.47-13.23,9.47" fill="#fff"/>
  </g>
</svg>
